<svg width="345" height="24" viewBox="0 0 345 24" fill="none" xmlns="http://www.w3.org/2000/svg">
<path d="M6.064 9.272H16.464V14.008H6.064V9.272ZM6.512 18.104H18.224V23H0.24V0.599998H17.808V5.496H6.512V18.104ZM32.908 23.448C31.1373 23.448 29.4947 23.1707 27.98 22.616C26.4867 22.04 25.1853 21.2293 24.076 20.184C22.988 19.1387 22.1347 17.912 21.516 16.504C20.8973 15.0747 20.588 13.5067 20.588 11.8C20.588 10.0933 20.8973 8.536 21.516 7.128C22.1347 5.69867 22.988 4.46133 24.076 3.416C25.1853 2.37067 26.4867 1.57067 27.98 1.016C29.4947 0.439999 31.1373 0.151999 32.908 0.151999C34.9773 0.151999 36.8227 0.514666 38.444 1.24C40.0867 1.96533 41.452 3.01067 42.54 4.376L38.508 8.024C37.7827 7.17067 36.9827 6.52 36.108 6.072C35.2547 5.624 34.2947 5.4 33.228 5.4C32.3107 5.4 31.468 5.54933 30.7 5.848C29.932 6.14667 29.2707 6.584 28.716 7.16C28.1827 7.71467 27.756 8.38667 27.436 9.176C27.1373 9.96533 26.988 10.84 26.988 11.8C26.988 12.76 27.1373 13.6347 27.436 14.424C27.756 15.2133 28.1827 15.896 28.716 16.472C29.2707 17.0267 29.932 17.4533 30.7 17.752C31.468 18.0507 32.3107 18.2 33.228 18.2C34.2947 18.2 35.2547 17.976 36.108 17.528C36.9827 17.08 37.7827 16.4293 38.508 15.576L42.54 19.224C41.452 20.568 40.0867 21.6133 38.444 22.36C36.8227 23.0853 34.9773 23.448 32.908 23.448ZM56.1923 23.448C54.4003 23.448 52.7469 23.16 51.2323 22.584C49.7176 22.008 48.3949 21.1973 47.2643 20.152C46.1549 19.0853 45.2909 17.848 44.6723 16.44C44.0536 15.032 43.7443 13.4853 43.7443 11.8C43.7443 10.1147 44.0536 8.568 44.6723 7.16C45.2909 5.752 46.1549 4.52533 47.2643 3.48C48.3949 2.41333 49.7176 1.592 51.2323 1.016C52.7469 0.439999 54.4003 0.151999 56.1923 0.151999C58.0056 0.151999 59.6589 0.439999 61.1523 1.016C62.6669 1.592 63.9789 2.41333 65.0883 3.48C66.1976 4.52533 67.0616 5.752 67.6803 7.16C68.3203 8.568 68.6403 10.1147 68.6403 11.8C68.6403 13.4853 68.3203 15.0427 67.6803 16.472C67.0616 17.88 66.1976 19.1067 65.0883 20.152C63.9789 21.1973 62.6669 22.008 61.1523 22.584C59.6589 23.16 58.0056 23.448 56.1923 23.448ZM56.1923 18.2C57.0456 18.2 57.8349 18.0507 58.5603 17.752C59.3069 17.4533 59.9469 17.0267 60.4803 16.472C61.0349 15.896 61.4616 15.2133 61.7603 14.424C62.0803 13.6347 62.2403 12.76 62.2403 11.8C62.2403 10.8187 62.0803 9.944 61.7603 9.176C61.4616 8.38667 61.0349 7.71467 60.4803 7.16C59.9469 6.584 59.3069 6.14667 58.5603 5.848C57.8349 5.54933 57.0456 5.4 56.1923 5.4C55.3389 5.4 54.5389 5.54933 53.7923 5.848C53.0669 6.14667 52.4269 6.584 51.8723 7.16C51.3389 7.71467 50.9123 8.38667 50.5923 9.176C50.2936 9.944 50.1443 10.8187 50.1443 11.8C50.1443 12.76 50.2936 13.6347 50.5923 14.424C50.9123 15.2133 51.3389 15.896 51.8723 16.472C52.4269 17.0267 53.0669 17.4533 53.7923 17.752C54.5389 18.0507 55.3389 18.2 56.1923 18.2ZM87.1593 10.424H97.4953V15.32H87.1593V10.424ZM87.6073 23H81.2713V0.599998H98.8393V5.496H87.6073V23ZM112.911 23.448C111.119 23.448 109.466 23.16 107.951 22.584C106.436 22.008 105.114 21.1973 103.983 20.152C102.874 19.0853 102.01 17.848 101.391 16.44C100.772 15.032 100.463 13.4853 100.463 11.8C100.463 10.1147 100.772 8.568 101.391 7.16C102.01 5.752 102.874 4.52533 103.983 3.48C105.114 2.41333 106.436 1.592 107.951 1.016C109.466 0.439999 111.119 0.151999 112.911 0.151999C114.724 0.151999 116.378 0.439999 117.871 1.016C119.386 1.592 120.698 2.41333 121.807 3.48C122.916 4.52533 123.78 5.752 124.399 7.16C125.039 8.568 125.359 10.1147 125.359 11.8C125.359 13.4853 125.039 15.0427 124.399 16.472C123.78 17.88 122.916 19.1067 121.807 20.152C120.698 21.1973 119.386 22.008 117.871 22.584C116.378 23.16 114.724 23.448 112.911 23.448ZM112.911 18.2C113.764 18.2 114.554 18.0507 115.279 17.752C116.026 17.4533 116.666 17.0267 117.199 16.472C117.754 15.896 118.18 15.2133 118.479 14.424C118.799 13.6347 118.959 12.76 118.959 11.8C118.959 10.8187 118.799 9.944 118.479 9.176C118.18 8.38667 117.754 7.71467 117.199 7.16C116.666 6.584 116.026 6.14667 115.279 5.848C114.554 5.54933 113.764 5.4 112.911 5.4C112.058 5.4 111.258 5.54933 110.511 5.848C109.786 6.14667 109.146 6.584 108.591 7.16C108.058 7.71467 107.631 8.38667 107.311 9.176C107.012 9.944 106.863 10.8187 106.863 11.8C106.863 12.76 107.012 13.6347 107.311 14.424C107.631 15.2133 108.058 15.896 108.591 16.472C109.146 17.0267 109.786 17.4533 110.511 17.752C111.258 18.0507 112.058 18.2 112.911 18.2ZM139.974 23.448C138.182 23.448 136.528 23.16 135.014 22.584C133.499 22.008 132.176 21.1973 131.046 20.152C129.936 19.0853 129.072 17.848 128.454 16.44C127.835 15.032 127.526 13.4853 127.526 11.8C127.526 10.1147 127.835 8.568 128.454 7.16C129.072 5.752 129.936 4.52533 131.046 3.48C132.176 2.41333 133.499 1.592 135.014 1.016C136.528 0.439999 138.182 0.151999 139.974 0.151999C141.787 0.151999 143.44 0.439999 144.934 1.016C146.448 1.592 147.76 2.41333 148.87 3.48C149.979 4.52533 150.843 5.752 151.462 7.16C152.102 8.568 152.422 10.1147 152.422 11.8C152.422 13.4853 152.102 15.0427 151.462 16.472C150.843 17.88 149.979 19.1067 148.87 20.152C147.76 21.1973 146.448 22.008 144.934 22.584C143.44 23.16 141.787 23.448 139.974 23.448ZM139.974 18.2C140.827 18.2 141.616 18.0507 142.342 17.752C143.088 17.4533 143.728 17.0267 144.262 16.472C144.816 15.896 145.243 15.2133 145.542 14.424C145.862 13.6347 146.022 12.76 146.022 11.8C146.022 10.8187 145.862 9.944 145.542 9.176C145.243 8.38667 144.816 7.71467 144.262 7.16C143.728 6.584 143.088 6.14667 142.342 5.848C141.616 5.54933 140.827 5.4 139.974 5.4C139.12 5.4 138.32 5.54933 137.574 5.848C136.848 6.14667 136.208 6.584 135.654 7.16C135.12 7.71467 134.694 8.38667 134.374 9.176C134.075 9.944 133.926 10.8187 133.926 11.8C133.926 12.76 134.075 13.6347 134.374 14.424C134.694 15.2133 135.12 15.896 135.654 16.472C136.208 17.0267 136.848 17.4533 137.574 17.752C138.32 18.0507 139.12 18.2 139.974 18.2ZM155.74 23V0.599998H166.332C168.807 0.599998 170.983 1.05867 172.86 1.976C174.737 2.89333 176.199 4.184 177.244 5.848C178.311 7.512 178.844 9.496 178.844 11.8C178.844 14.0827 178.311 16.0667 177.244 17.752C176.199 19.416 174.737 20.7067 172.86 21.624C170.983 22.5413 168.807 23 166.332 23H155.74ZM162.076 17.944H166.076C167.356 17.944 168.465 17.7093 169.404 17.24C170.364 16.7493 171.111 16.0453 171.644 15.128C172.177 14.1893 172.444 13.08 172.444 11.8C172.444 10.4987 172.177 9.38933 171.644 8.472C171.111 7.55467 170.364 6.86133 169.404 6.392C168.465 5.90133 167.356 5.656 166.076 5.656H162.076V17.944ZM201.826 23.448C198.519 23.448 195.938 22.5413 194.082 20.728C192.226 18.9147 191.298 16.344 191.298 13.016V0.599998H197.634V12.824C197.634 14.744 198.007 16.12 198.754 16.952C199.522 17.784 200.567 18.2 201.89 18.2C203.213 18.2 204.247 17.784 204.994 16.952C205.741 16.12 206.114 14.744 206.114 12.824V0.599998H212.354V13.016C212.354 16.344 211.426 18.9147 209.57 20.728C207.714 22.5413 205.133 23.448 201.826 23.448ZM222.31 18.04L221.958 10.936L231.59 0.599998H238.566L228.966 11L225.446 14.68L222.31 18.04ZM216.646 23V0.599998H222.918V23H216.646ZM231.686 23L224.39 13.752L228.518 9.336L239.046 23H231.686ZM240.709 23V0.599998H250.949C252.997 0.599998 254.757 0.930665 256.229 1.592C257.722 2.25333 258.874 3.21333 259.685 4.472C260.495 5.70933 260.901 7.18133 260.901 8.888C260.901 10.5733 260.495 12.0347 259.685 13.272C258.874 14.488 257.722 15.4267 256.229 16.088C254.757 16.728 252.997 17.048 250.949 17.048H244.229L247.045 14.392V23H240.709ZM254.565 23L248.997 14.84H255.749L261.349 23H254.565ZM247.045 15.064L244.229 12.152H250.565C251.887 12.152 252.869 11.864 253.509 11.288C254.17 10.712 254.501 9.912 254.501 8.888C254.501 7.84267 254.17 7.032 253.509 6.456C252.869 5.88 251.887 5.592 250.565 5.592H244.229L247.045 2.68V15.064ZM261.708 23L271.596 0.599998H277.836L287.756 23H281.164L273.42 3.704H275.916L268.172 23H261.708ZM267.116 18.648L268.748 13.976H279.692L281.324 18.648H267.116ZM289.553 23V0.599998H295.889V23H289.553ZM300.396 23V0.599998H305.612L317.964 15.512H315.5V0.599998H321.708V23H316.492L304.14 8.088H306.604V23H300.396ZM332.002 9.272H342.402V14.008H332.002V9.272ZM332.45 18.104H344.162V23H326.178V0.599998H343.746V5.496H332.45V18.104Z" fill="black"/>
</svg>
